# xmcd CD database file generated by OrangeCD 6.1
#
# Track frame offsets:
#	150
#	20144
#	37804
#	55987
#	74907
#	92578
#	114181
#	129291
#	148449
#	165646
#	179779
#	197824
#	215219
#
# Disc length: 3131 seconds
#
# Revision: 0
# Processed by: cddbd v1.5.2PL0 Copyright (c) Steve Scherf et al.
# Submitted via: OrangeCD 6.1
#
DISCID=cd0c390d
DTITLE=Rascal Flatts - Still Feels Good
DYEAR=2007
DGENRE=Country
TTITLE0=Take Me There
TTITLE1=Here
TTITLE2=Bob That Head
TTITLE3=Help Me Remember
TTITLE4=Still Feels Good
TTITLE5=Winner at a Losing Game
TTITLE6=No Reins
TTITLE7=Every Day
TTITLE8=Secret Smile
TTITLE9=Better Now
TTITLE10=She Goes All the Way
TTITLE11=How Strong Are You Now
TTITLE12=It's Not Supposed to Go Like That
EXTD=
EXTT0=
EXTT1=
EXTT2=
EXTT3=
EXTT4=
EXTT5=
EXTT6=
EXTT7=
EXTT8=
EXTT9=
EXTT10=
EXTT11=
EXTT12=
PLAYORDER=
